<?xml version="1.0" encoding="utf-8"?>
<!-- Generator: Adobe Illustrator 15.1.0, SVG Export Plug-In . SVG Version: 6.00 Build 0)  -->
<!DOCTYPE svg PUBLIC "-//W3C//DTD SVG 1.1//EN" "http://www.w3.org/Graphics/SVG/1.1/DTD/svg11.dtd">
<svg version="1.1" id="Layer_1" xmlns="http://www.w3.org/2000/svg" xmlns:xlink="http://www.w3.org/1999/xlink" x="0px" y="0px"
	 width="200px" height="60px" viewBox="197.64 390.945 200 60" enable-background="new 197.64 390.945 200 60" xml:space="preserve"
	>
<path fill="none" stroke="#B2B3B3" stroke-width="0.5" stroke-miterlimit="10" d="M207.119,401.371
	c-1.104,0-1.999,0.891-1.999,1.996v36.006c0,1.104,0.887,1.998,1.999,1.998h180.998c1.104,0,1.998-0.893,1.998-1.998v-36.006
	c0-1.102-0.887-1.996-1.998-1.996H207.119L207.119,401.371z"/>
<g>
	<g enable-background="new    ">
		<path fill="#37609F" d="M247.205,422.23c-1.045-0.301-1.806-0.67-2.281-1.106c-0.477-0.438-0.715-0.98-0.715-1.623
			c0-0.729,0.291-1.328,0.873-1.806c0.582-0.477,1.338-0.715,2.27-0.715c0.635,0,1.201,0.123,1.697,0.369
			c0.498,0.244,0.883,0.583,1.156,1.017c0.272,0.432,0.407,0.9,0.407,1.412h-1.225c0-0.561-0.178-1-0.533-1.318
			c-0.354-0.32-0.856-0.482-1.504-0.482c-0.602,0-1.07,0.133-1.406,0.398c-0.336,0.264-0.504,0.633-0.504,1.104
			c0,0.377,0.158,0.695,0.479,0.957c0.32,0.259,0.863,0.498,1.631,0.715c0.77,0.217,1.369,0.456,1.803,0.716
			c0.435,0.26,0.756,0.564,0.965,0.91c0.211,0.348,0.314,0.756,0.314,1.227c0,0.748-0.291,1.348-0.875,1.799
			s-1.365,0.676-2.344,0.676c-0.636,0-1.228-0.121-1.777-0.363c-0.549-0.242-0.973-0.576-1.271-1
			c-0.3-0.424-0.447-0.902-0.447-1.439h1.225c0,0.559,0.207,1,0.619,1.322s0.963,0.484,1.652,0.484c0.645,0,1.137-0.131,1.479-0.395
			c0.342-0.262,0.515-0.619,0.515-1.072s-0.158-0.803-0.478-1.051C248.615,422.716,248.039,422.47,247.205,422.23z"/>
		<path fill="#37609F" d="M252.211,417.659c0-0.191,0.059-0.352,0.176-0.482c0.115-0.131,0.289-0.197,0.518-0.197
			c0.229,0,0.4,0.066,0.521,0.197s0.178,0.291,0.178,0.482c0,0.189-0.059,0.349-0.178,0.476s-0.291,0.189-0.521,0.189
			c-0.229,0-0.401-0.063-0.518-0.189C252.27,418.008,252.211,417.848,252.211,417.659z M253.48,426.349h-1.174v-6.868h1.174V426.349
			z"/>
		<path fill="#37609F" d="M255.275,422.859c0-1.068,0.248-1.923,0.744-2.556c0.494-0.633,1.15-0.949,1.967-0.949
			c0.839,0,1.492,0.295,1.961,0.891l0.06-0.764h1.072v6.704c0,0.891-0.265,1.588-0.791,2.102c-0.525,0.514-1.234,0.77-2.123,0.77
			c-0.494,0-0.979-0.105-1.453-0.318c-0.476-0.211-0.836-0.502-1.086-0.869l0.608-0.705c0.504,0.623,1.119,0.934,1.849,0.934
			c0.569,0,1.016-0.16,1.336-0.48c0.319-0.322,0.479-0.775,0.479-1.359v-0.59c-0.469,0.543-1.108,0.813-1.922,0.813
			c-0.805,0-1.455-0.324-1.953-0.971C255.525,424.857,255.275,423.976,255.275,422.859z M256.457,422.992
			c0,0.773,0.157,1.383,0.477,1.824c0.316,0.443,0.762,0.664,1.332,0.664c0.74,0,1.285-0.336,1.631-1.01v-3.135
			c-0.358-0.657-0.897-0.985-1.617-0.985c-0.571,0-1.018,0.223-1.34,0.666C256.617,421.462,256.457,422.121,256.457,422.992z"/>
		<path fill="#37609F" d="M264.154,419.481l0.039,0.863c0.523-0.66,1.209-0.99,2.058-0.99c1.451,0,2.184,0.818,2.194,2.456v4.539
			h-1.174v-4.545c-0.004-0.495-0.117-0.862-0.34-1.099c-0.223-0.236-0.568-0.355-1.037-0.355c-0.381,0-0.717,0.104-1.004,0.306
			c-0.287,0.201-0.512,0.469-0.672,0.8v4.895h-1.176v-6.868h1.111V419.481z"/>
		<path fill="#37609F" d="M273.832,417.659c0-0.191,0.057-0.352,0.174-0.482c0.117-0.129,0.289-0.197,0.518-0.197
			c0.229,0,0.402,0.066,0.521,0.197c0.119,0.131,0.178,0.291,0.178,0.482c0,0.189-0.059,0.349-0.178,0.476
			c-0.117,0.127-0.291,0.189-0.521,0.189c-0.229,0-0.399-0.063-0.518-0.189C273.888,418.01,273.832,417.848,273.832,417.659z
			 M275.102,426.349h-1.176v-6.868h1.176V426.349z"/>
		<path fill="#37609F" d="M278.285,419.481l0.039,0.863c0.522-0.66,1.209-0.99,2.057-0.99c1.451,0,2.184,0.818,2.195,2.456v4.539
			h-1.175v-4.545c-0.004-0.495-0.116-0.862-0.34-1.099c-0.223-0.236-0.567-0.355-1.037-0.355c-0.381,0-0.717,0.104-1.004,0.306
			c-0.287,0.201-0.512,0.469-0.672,0.8v4.895h-1.176v-6.868h1.112V419.481z"/>
		<path fill="#37609F" d="M294.037,424.73l1.322-5.249h1.175l-2.003,6.868h-0.951l-1.67-5.206l-1.625,5.206h-0.951l-1.994-6.868
			h1.168l1.352,5.144l1.601-5.144h0.946L294.037,424.73z"/>
		<path fill="#37609F" d="M297.929,417.659c0-0.191,0.059-0.352,0.176-0.482c0.115-0.131,0.287-0.197,0.517-0.197
			c0.229,0,0.401,0.066,0.521,0.197s0.178,0.291,0.178,0.482c0,0.189-0.059,0.349-0.178,0.476s-0.293,0.189-0.521,0.189
			c-0.229,0-0.4-0.063-0.517-0.189C297.987,418.008,297.929,417.848,297.929,417.659z M299.198,426.349h-1.174v-6.868h1.174V426.349
			z"/>
		<path fill="#37609F" d="M302.866,417.817v1.664h1.28v0.906h-1.28v4.267c0,0.275,0.057,0.482,0.172,0.619
			c0.112,0.141,0.309,0.207,0.584,0.207c0.135,0,0.319-0.023,0.559-0.076v0.947c-0.311,0.084-0.609,0.125-0.902,0.125
			c-0.524,0-0.92-0.158-1.188-0.477c-0.266-0.316-0.398-0.768-0.398-1.352v-4.261h-1.252v-0.906h1.252v-1.664H302.866
			L302.866,417.817z"/>
		<path fill="#37609F" d="M306.888,420.311c0.521-0.639,1.199-0.957,2.031-0.957c1.452,0,2.184,0.818,2.196,2.456v4.539h-1.174
			v-4.545c-0.006-0.495-0.117-0.862-0.34-1.099c-0.223-0.236-0.568-0.355-1.039-0.355c-0.381,0-0.715,0.104-1.002,0.304
			c-0.287,0.203-0.512,0.471-0.674,0.802v4.895h-1.174v-9.75h1.174L306.888,420.311L306.888,420.311z"/>
		<path fill="#37609F" d="M321.765,422.267h-3.879v4.082h-1.219v-9.243h5.725v0.996h-4.506v3.168h3.879V422.267z"/>
		<path fill="#37609F" d="M327.888,426.349c-0.068-0.135-0.123-0.377-0.166-0.723c-0.545,0.566-1.197,0.85-1.955,0.85
			c-0.676,0-1.232-0.189-1.666-0.574c-0.434-0.383-0.65-0.867-0.65-1.457c0-0.715,0.271-1.27,0.816-1.664
			c0.543-0.396,1.309-0.596,2.295-0.596h1.144v-0.539c0-0.411-0.123-0.737-0.369-0.98c-0.246-0.244-0.607-0.365-1.086-0.365
			c-0.418,0-0.771,0.105-1.054,0.316c-0.282,0.213-0.426,0.469-0.426,0.771h-1.18c0-0.344,0.121-0.675,0.365-0.995
			c0.241-0.318,0.571-0.572,0.989-0.758c0.416-0.188,0.873-0.279,1.373-0.279c0.791,0,1.412,0.197,1.859,0.594
			c0.449,0.395,0.682,0.939,0.699,1.634v3.162c0,0.631,0.08,1.133,0.239,1.504v0.102h-1.229V426.349z M325.938,425.455
			c0.369,0,0.717-0.096,1.047-0.285c0.33-0.191,0.57-0.439,0.719-0.744v-1.408h-0.922c-1.438,0-2.158,0.422-2.158,1.266
			c0,0.365,0.123,0.654,0.369,0.861S325.554,425.455,325.938,425.455z"/>
		<path fill="#37609F" d="M333.669,425.517c0.418,0,0.784-0.127,1.098-0.381c0.313-0.254,0.486-0.57,0.52-0.951h1.111
			c-0.021,0.395-0.156,0.77-0.406,1.123c-0.25,0.355-0.582,0.641-1,0.854c-0.416,0.211-0.856,0.314-1.321,0.314
			c-0.937,0-1.681-0.313-2.232-0.936c-0.551-0.625-0.828-1.479-0.828-2.563v-0.195c0-0.67,0.123-1.264,0.369-1.786
			c0.244-0.52,0.598-0.924,1.057-1.211c0.459-0.289,1.002-0.432,1.627-0.432c0.771,0,1.41,0.23,1.923,0.691
			c0.51,0.461,0.78,1.061,0.813,1.798h-1.111c-0.032-0.446-0.2-0.812-0.504-1.097c-0.303-0.285-0.676-0.429-1.121-0.429
			c-0.596,0-1.059,0.217-1.387,0.646c-0.328,0.43-0.492,1.05-0.492,1.862v0.223c0,0.791,0.164,1.398,0.49,1.828
			C332.597,425.304,333.063,425.517,333.669,425.517z"/>
		<path fill="#37609F" d="M340.763,426.476c-0.931,0-1.688-0.305-2.271-0.916c-0.583-0.609-0.877-1.43-0.877-2.455v-0.215
			c0-0.682,0.131-1.289,0.392-1.825c0.262-0.533,0.625-0.955,1.092-1.258c0.469-0.303,0.975-0.453,1.521-0.453
			c0.894,0,1.586,0.293,2.082,0.881c0.494,0.591,0.742,1.435,0.742,2.528v0.488h-4.652c0.017,0.678,0.216,1.225,0.595,1.641
			c0.377,0.418,0.858,0.625,1.442,0.625c0.414,0,0.767-0.084,1.054-0.254c0.289-0.168,0.541-0.393,0.756-0.672l0.717,0.559
			C342.778,426.035,341.914,426.476,340.763,426.476z M340.617,420.319c-0.475,0-0.873,0.174-1.192,0.519
			c-0.322,0.345-0.521,0.83-0.599,1.451h3.441v-0.088c-0.035-0.6-0.195-1.062-0.482-1.39
			C341.496,420.483,341.108,420.319,340.617,420.319z"/>
		<path fill="#37609F" d="M350.81,422.992c0,1.049-0.24,1.893-0.723,2.529c-0.483,0.637-1.132,0.955-1.943,0.955
			c-0.867,0-1.537-0.307-2.012-0.92l-0.058,0.793h-1.08v-9.75h1.175v3.636c0.475-0.588,1.129-0.881,1.963-0.881
			c0.832,0,1.487,0.314,1.965,0.945c0.475,0.631,0.713,1.495,0.713,2.591V422.992L350.81,422.992z M349.636,422.859
			c0-0.801-0.154-1.418-0.463-1.854c-0.312-0.436-0.754-0.654-1.334-0.654c-0.773,0-1.33,0.359-1.671,1.079v2.971
			c0.361,0.723,0.923,1.08,1.685,1.08c0.563,0,1-0.219,1.313-0.652C349.479,424.39,349.636,423.734,349.636,422.859z"/>
		<path fill="#37609F" d="M352.173,422.851c0-0.672,0.133-1.275,0.396-1.813c0.263-0.537,0.633-0.953,1.105-1.244
			c0.471-0.293,1.01-0.439,1.614-0.439c0.935,0,1.691,0.322,2.271,0.973c0.576,0.645,0.865,1.509,0.865,2.585v0.082
			c0,0.668-0.127,1.268-0.384,1.799c-0.258,0.531-0.622,0.945-1.1,1.242c-0.475,0.295-1.022,0.441-1.641,0.441
			c-0.933,0-1.687-0.324-2.263-0.971c-0.577-0.648-0.866-1.504-0.866-2.57v-0.084H352.173z M353.353,422.992
			c0,0.762,0.178,1.373,0.531,1.834c0.353,0.461,0.826,0.691,1.418,0.691c0.598,0,1.069-0.232,1.422-0.701
			c0.352-0.467,0.527-1.121,0.527-1.965c0-0.752-0.181-1.363-0.537-1.831c-0.357-0.469-0.832-0.701-1.425-0.701
			c-0.579,0-1.049,0.23-1.403,0.691C353.531,421.472,353.353,422.132,353.353,422.992z"/>
		<path fill="#37609F" d="M359.781,422.851c0-0.672,0.133-1.275,0.396-1.813c0.263-0.537,0.633-0.953,1.104-1.244
			c0.472-0.293,1.011-0.439,1.615-0.439c0.934,0,1.691,0.322,2.271,0.973c0.575,0.645,0.864,1.509,0.864,2.585v0.082
			c0,0.668-0.127,1.268-0.383,1.799c-0.258,0.531-0.623,0.945-1.1,1.242c-0.476,0.295-1.023,0.441-1.642,0.441
			c-0.932,0-1.686-0.324-2.262-0.971c-0.578-0.648-0.867-1.504-0.867-2.57v-0.084H359.781z M360.962,422.992
			c0,0.762,0.178,1.373,0.53,1.834c0.354,0.461,0.826,0.691,1.418,0.691c0.599,0,1.07-0.232,1.422-0.701
			c0.353-0.467,0.527-1.121,0.527-1.965c0-0.752-0.18-1.363-0.537-1.831c-0.356-0.469-0.832-0.701-1.424-0.701
			c-0.58,0-1.049,0.23-1.404,0.691C361.14,421.472,360.962,422.132,360.962,422.992z"/>
		<path fill="#37609F" d="M369.617,423.169l-0.735,0.768v2.412h-1.175v-9.75h1.175v5.897l0.629-0.754l2.139-2.261h1.43l-2.674,2.87
			l2.984,3.998h-1.377L369.617,423.169z"/>
	</g>
	<path fill="#37609F" d="M228.992,421.376h-2.242c0,3.584,0,7.995,0,7.995h-3.322c0,0,0-4.367,0-7.995h-1.58v-2.825h1.58v-1.828
		c0-1.307,0.621-3.353,3.354-3.353l2.461,0.01v2.742c0,0-1.496,0-1.787,0s-0.705,0.145-0.705,0.77v1.66h2.533L228.992,421.376z"/>
</g>
</svg>
