<?xml version="1.0" encoding="utf-8"?>
<!-- Generator: Adobe Illustrator 15.1.0, SVG Export Plug-In . SVG Version: 6.00 Build 0)  -->
<!DOCTYPE svg PUBLIC "-//W3C//DTD SVG 1.1//EN" "http://www.w3.org/Graphics/SVG/1.1/DTD/svg11.dtd">
<svg version="1.1" id="Layer_1" xmlns="http://www.w3.org/2000/svg" xmlns:xlink="http://www.w3.org/1999/xlink" x="0px" y="0px"
	 width="200px" height="60px" viewBox="195.605 360.445 200 60" enable-background="new 195.605 360.445 200 60"
	 xml:space="preserve">
<g>
	<g>
		<path fill="#DB513F" d="M232.576,390.176v2.399h3.97c-0.16,1.028-1.2,3.021-3.97,3.021c-2.391,0-4.341-1.979-4.341-4.419
			c0-2.44,1.95-4.42,4.341-4.42c1.359,0,2.27,0.58,2.79,1.08l1.899-1.83c-1.22-1.141-2.8-1.83-4.689-1.83c-3.87,0-7,3.129-7,7
			c0,3.869,3.13,6.999,7,6.999c4.04,0,6.72-2.841,6.72-6.84c0-0.46-0.05-0.81-0.11-1.159L232.576,390.176L232.576,390.176
			L232.576,390.176z"/>
		<g>
			<g>
				<g>
					<g>
						<defs>
							<polyline id="SVGID_1_" points="247.576,390.176 245.576,390.176 245.576,388.176 243.576,388.176 243.576,390.176 
								241.576,390.176 241.576,392.175 243.576,392.175 243.576,394.175 245.576,394.175 245.576,392.175 247.576,392.175 							
								"/>
						</defs>
						<clipPath id="SVGID_2_">
							<use xlink:href="#SVGID_1_"  overflow="visible"/>
						</clipPath>
						<rect x="236.576" y="383.176" clip-path="url(#SVGID_2_)" fill="#DB513F" width="16" height="15.999"/>
					</g>
				</g>
			</g>
		</g>
		<g enable-background="new    ">
			<path fill="#DC5043" d="M259.75,391.942c-1.045-0.301-1.807-0.669-2.282-1.106c-0.476-0.438-0.714-0.979-0.714-1.622
				c0-0.729,0.291-1.328,0.873-1.807c0.582-0.475,1.338-0.713,2.269-0.713c0.635,0,1.201,0.123,1.698,0.367
				c0.498,0.246,0.883,0.584,1.155,1.017c0.272,0.433,0.41,0.903,0.41,1.415h-1.226c0-0.561-0.178-1.001-0.533-1.321
				c-0.354-0.319-0.856-0.481-1.504-0.481c-0.601,0-1.069,0.133-1.405,0.398c-0.338,0.266-0.506,0.633-0.506,1.104
				c0,0.377,0.16,0.695,0.479,0.957c0.319,0.261,0.863,0.498,1.631,0.715c0.77,0.216,1.369,0.453,1.803,0.715
				c0.435,0.26,0.756,0.563,0.965,0.909c0.211,0.349,0.314,0.757,0.314,1.226c0,0.75-0.292,1.351-0.876,1.802
				c-0.584,0.448-1.365,0.676-2.342,0.676c-0.635,0-1.228-0.122-1.777-0.364c-0.55-0.242-0.974-0.576-1.272-1
				c-0.299-0.424-0.447-0.902-0.447-1.439h1.225c0,0.559,0.207,1,0.619,1.322c0.413,0.324,0.964,0.485,1.654,0.485
				c0.643,0,1.136-0.132,1.479-0.395c0.343-0.263,0.515-0.619,0.515-1.072s-0.159-0.803-0.477-1.051
				C261.159,392.428,260.584,392.183,259.75,391.942z"/>
			<path fill="#DC5043" d="M264.757,387.374c0-0.191,0.058-0.352,0.174-0.482c0.117-0.131,0.289-0.197,0.519-0.197
				c0.229,0,0.401,0.066,0.521,0.197s0.178,0.291,0.178,0.482c0,0.189-0.059,0.35-0.178,0.477s-0.292,0.189-0.521,0.189
				c-0.229,0-0.401-0.063-0.519-0.189C264.815,387.722,264.757,387.563,264.757,387.374z M266.026,396.062h-1.174v-6.867h1.174
				V396.062z"/>
			<path fill="#DC5043" d="M267.821,392.57c0-1.069,0.248-1.921,0.743-2.554c0.495-0.633,1.151-0.949,1.969-0.949
				c0.838,0,1.491,0.297,1.961,0.89l0.057-0.763h1.073v6.702c0,0.89-0.264,1.589-0.791,2.101c-0.526,0.515-1.234,0.771-2.123,0.771
				c-0.495,0-0.979-0.104-1.454-0.314c-0.476-0.214-0.836-0.504-1.085-0.869l0.608-0.705c0.504,0.621,1.119,0.935,1.848,0.935
				c0.571,0,1.017-0.161,1.336-0.482c0.319-0.322,0.479-0.773,0.479-1.357v-0.592c-0.47,0.543-1.11,0.813-1.923,0.813
				c-0.804,0-1.455-0.323-1.952-0.971C268.069,394.569,267.821,393.688,267.821,392.57z M269.002,392.704
				c0,0.773,0.159,1.383,0.476,1.824c0.317,0.442,0.763,0.664,1.333,0.664c0.741,0,1.284-0.337,1.631-1.01v-3.136
				c-0.359-0.655-0.898-0.981-1.618-0.981c-0.571,0-1.019,0.222-1.34,0.665C269.163,391.174,269.002,391.833,269.002,392.704z"/>
			<path fill="#DC5043" d="M276.699,389.194l0.037,0.863c0.525-0.66,1.21-0.99,2.058-0.99c1.452,0,2.184,0.82,2.196,2.455v4.539
				h-1.175v-4.545c-0.004-0.494-0.118-0.859-0.339-1.097c-0.223-0.237-0.567-0.354-1.038-0.354c-0.381,0-0.715,0.102-1.003,0.305
				s-0.512,0.469-0.673,0.798v4.894h-1.174v-6.867L276.699,389.194L276.699,389.194z"/>
			<path fill="#DC5043" d="M286.376,387.374c0-0.191,0.058-0.352,0.175-0.482c0.116-0.131,0.289-0.197,0.517-0.197
				c0.229,0,0.401,0.066,0.521,0.197s0.179,0.291,0.179,0.482c0,0.189-0.06,0.35-0.179,0.477s-0.291,0.189-0.521,0.189
				c-0.229,0-0.4-0.063-0.517-0.189C286.435,387.722,286.376,387.563,286.376,387.374z M287.646,396.062h-1.174v-6.867h1.174
				V396.062z"/>
			<path fill="#DC5043" d="M290.831,389.194l0.037,0.863c0.524-0.66,1.21-0.99,2.057-0.99c1.453,0,2.185,0.82,2.196,2.455v4.539
				h-1.175v-4.545c-0.004-0.494-0.117-0.859-0.339-1.097c-0.223-0.237-0.567-0.354-1.038-0.354c-0.381,0-0.715,0.102-1.003,0.305
				s-0.512,0.469-0.673,0.798v4.894h-1.175v-6.867L290.831,389.194L290.831,389.194z"/>
			<path fill="#DC5043" d="M306.578,394.442l1.32-5.248h1.174l-2,6.867h-0.95l-1.67-5.204l-1.625,5.204h-0.952l-1.991-6.867h1.166
				l1.352,5.141l1.602-5.141h0.943L306.578,394.442z"/>
			<path fill="#DC5043" d="M310.468,387.374c0-0.191,0.059-0.352,0.176-0.482c0.115-0.131,0.287-0.197,0.516-0.197
				c0.229,0,0.402,0.066,0.521,0.197c0.118,0.131,0.178,0.291,0.178,0.482c0,0.189-0.06,0.35-0.178,0.477
				c-0.119,0.127-0.293,0.189-0.521,0.189c-0.227,0-0.397-0.063-0.516-0.189S310.468,387.563,310.468,387.374z M311.737,396.062
				h-1.174v-6.867h1.174V396.062z"/>
			<path fill="#DC5043" d="M315.405,387.532v1.662h1.281v0.908h-1.281v4.264c0,0.275,0.058,0.481,0.17,0.619
				c0.115,0.139,0.312,0.207,0.584,0.207c0.138,0,0.322-0.025,0.561-0.076v0.946c-0.311,0.084-0.608,0.126-0.901,0.126
				c-0.522,0-0.92-0.158-1.188-0.477c-0.267-0.316-0.398-0.77-0.398-1.354v-4.258h-1.252v-0.908h1.252v-1.662L315.405,387.532
				L315.405,387.532z"/>
			<path fill="#DC5043" d="M319.427,390.026c0.521-0.639,1.198-0.959,2.03-0.959c1.451,0,2.185,0.82,2.197,2.455v4.539h-1.176
				v-4.545c-0.004-0.494-0.117-0.859-0.341-1.097c-0.222-0.237-0.565-0.354-1.036-0.354c-0.383,0-0.717,0.102-1.002,0.305
				c-0.289,0.203-0.516,0.469-0.676,0.798v4.894h-1.175v-9.748h1.175L319.427,390.026L319.427,390.026z"/>
			<path fill="#DC5043" d="M336.028,394.849c-0.313,0.449-0.75,0.783-1.312,1.007c-0.563,0.222-1.214,0.333-1.958,0.333
				c-0.754,0-1.422-0.177-2.006-0.529c-0.584-0.354-1.036-0.854-1.354-1.508c-0.32-0.652-0.484-1.406-0.492-2.267v-0.806
				c0-1.393,0.324-2.471,0.976-3.237c0.647-0.766,1.563-1.147,2.737-1.147c0.966,0,1.742,0.246,2.33,0.738
				c0.588,0.493,0.947,1.192,1.078,2.1h-1.219c-0.229-1.229-0.955-1.842-2.186-1.842c-0.814,0-1.437,0.287-1.854,0.86
				c-0.422,0.574-0.636,1.405-0.641,2.492v0.757c0,1.037,0.235,1.861,0.711,2.474c0.477,0.612,1.114,0.919,1.926,0.919
				c0.457,0,0.854-0.051,1.197-0.152c0.346-0.102,0.627-0.271,0.854-0.513v-2.071h-2.142v-0.995h3.353L336.028,394.849
				L336.028,394.849z"/>
			<path fill="#DC5043" d="M337.761,392.563c0-0.672,0.133-1.276,0.396-1.813c0.265-0.538,0.633-0.953,1.104-1.244
				c0.473-0.293,1.012-0.438,1.614-0.438c0.937,0,1.691,0.322,2.271,0.972c0.578,0.646,0.866,1.507,0.866,2.581v0.084
				c0,0.668-0.128,1.269-0.384,1.799c-0.258,0.531-0.622,0.945-1.101,1.24c-0.477,0.297-1.021,0.444-1.642,0.444
				c-0.933,0-1.688-0.323-2.264-0.971c-0.577-0.648-0.865-1.505-0.865-2.571v-0.084L337.761,392.563L337.761,392.563z
				 M338.94,392.704c0,0.764,0.18,1.373,0.53,1.834c0.354,0.461,0.827,0.691,1.419,0.691c0.598,0,1.07-0.232,1.422-0.701
				c0.354-0.468,0.527-1.122,0.527-1.965c0-0.753-0.181-1.362-0.537-1.83c-0.357-0.467-0.832-0.701-1.425-0.701
				c-0.579,0-1.049,0.23-1.403,0.692C339.117,391.186,338.94,391.845,338.94,392.704z"/>
			<path fill="#DC5043" d="M345.368,392.563c0-0.672,0.132-1.276,0.396-1.813c0.266-0.538,0.633-0.953,1.104-1.244
				c0.474-0.293,1.012-0.438,1.614-0.438c0.938,0,1.691,0.322,2.271,0.972c0.577,0.646,0.866,1.507,0.866,2.581v0.084
				c0,0.668-0.13,1.269-0.386,1.799c-0.256,0.531-0.621,0.945-1.099,1.24c-0.479,0.297-1.022,0.444-1.642,0.444
				c-0.933,0-1.687-0.323-2.265-0.971c-0.578-0.648-0.867-1.505-0.867-2.571v-0.084L345.368,392.563L345.368,392.563z
				 M346.55,392.704c0,0.764,0.178,1.373,0.529,1.834c0.353,0.461,0.825,0.691,1.419,0.691c0.597,0,1.07-0.232,1.423-0.701
				c0.352-0.468,0.524-1.122,0.524-1.965c0-0.753-0.178-1.362-0.535-1.83c-0.356-0.467-0.833-0.701-1.426-0.701
				c-0.58,0-1.047,0.23-1.402,0.692C346.728,391.186,346.55,391.845,346.55,392.704z"/>
			<path fill="#DC5043" d="M353.011,392.57c0-1.069,0.247-1.921,0.742-2.554c0.494-0.633,1.149-0.949,1.968-0.949
				c0.839,0,1.491,0.297,1.962,0.89l0.057-0.763h1.072v6.702c0,0.89-0.263,1.589-0.789,2.101c-0.525,0.515-1.233,0.771-2.123,0.771
				c-0.496,0-0.979-0.104-1.455-0.314c-0.473-0.214-0.836-0.504-1.084-0.869l0.608-0.705c0.503,0.621,1.119,0.935,1.847,0.935
				c0.572,0,1.021-0.161,1.338-0.482c0.318-0.322,0.479-0.773,0.479-1.357v-0.592c-0.472,0.543-1.11,0.813-1.924,0.813
				c-0.807,0-1.455-0.323-1.952-0.971C353.259,394.569,353.011,393.688,353.011,392.57z M354.19,392.704
				c0,0.773,0.16,1.383,0.479,1.824c0.315,0.442,0.762,0.664,1.333,0.664c0.738,0,1.281-0.337,1.632-1.01v-3.136
				c-0.359-0.655-0.898-0.981-1.617-0.981c-0.572,0-1.021,0.222-1.342,0.665C354.353,391.173,354.19,391.833,354.19,392.704z"/>
			<path fill="#DC5043" d="M362.054,396.062h-1.174v-9.748h1.174V396.062z"/>
			<path fill="#DC5043" d="M366.978,396.188c-0.932,0-1.688-0.307-2.271-0.917s-0.876-1.43-0.876-2.454v-0.215
				c0-0.682,0.131-1.29,0.392-1.824c0.262-0.534,0.624-0.953,1.094-1.256c0.467-0.303,0.975-0.455,1.521-0.455
				c0.895,0,1.588,0.295,2.082,0.883c0.495,0.589,0.741,1.43,0.741,2.525v0.488h-4.651c0.018,0.677,0.215,1.224,0.594,1.641
				s0.86,0.625,1.444,0.625c0.415,0,0.767-0.084,1.054-0.254c0.287-0.169,0.539-0.393,0.756-0.672l0.717,0.559
				C368.99,395.747,368.128,396.188,366.978,396.188z M366.83,390.032c-0.475,0-0.87,0.174-1.192,0.519
				c-0.32,0.345-0.521,0.827-0.597,1.448h3.439v-0.088c-0.033-0.598-0.194-1.059-0.482-1.387
				C367.712,390.196,367.321,390.032,366.83,390.032z"/>
		</g>
	</g>
	<path fill="none" stroke="#B2B3B3" stroke-width="0.5" stroke-miterlimit="10" d="M207.119,371.063
		c-1.104,0-1.999,0.891-1.999,1.996v36.003c0,1.104,0.887,1.998,1.999,1.998h180.999c1.104,0,1.998-0.891,1.998-1.998V373.06
		c0-1.102-0.887-1.996-1.998-1.996L207.119,371.063L207.119,371.063z"/>
</g>
</svg>
