<?xml version="1.0" encoding="utf-8"?>
<!-- Generator: Adobe Illustrator 15.1.0, SVG Export Plug-In . SVG Version: 6.00 Build 0)  -->
<!DOCTYPE svg PUBLIC "-//W3C//DTD SVG 1.1//EN" "http://www.w3.org/Graphics/SVG/1.1/DTD/svg11.dtd">
<svg version="1.1" id="Layer_1" xmlns="http://www.w3.org/2000/svg" xmlns:xlink="http://www.w3.org/1999/xlink" x="0px" y="0px"
	 width="100px" height="30px" viewBox="0 0 206 60" enable-background="new 0 0 206 60" xml:space="preserve">
<path fill-rule="evenodd" clip-rule="evenodd" fill="none" stroke="#D0D2D3" stroke-width="0.25" stroke-miterlimit="10" d="
	M12.744,11.108c-1.104,0-1.999,0.891-1.999,1.996V49.11c0,1.104,0.887,1.998,1.999,1.998h180.999c1.104,0,1.998-0.891,1.998-1.998
	V13.104c0-1.102-0.887-1.996-1.998-1.996H12.744L12.744,11.108z M12.744,11.108"/>
<g>
	<g enable-background="new    ">
		<path fill="#36609F" d="M52.83,31.969c-1.045-0.301-1.805-0.67-2.281-1.107s-0.715-0.979-0.715-1.623
			c0-0.727,0.291-1.328,0.873-1.805s1.338-0.715,2.27-0.715c0.635,0,1.201,0.123,1.697,0.369c0.498,0.244,0.883,0.584,1.156,1.016
			s0.408,0.902,0.408,1.414h-1.225c0-0.561-0.178-1-0.533-1.32s-0.857-0.482-1.504-0.482c-0.602,0-1.07,0.133-1.406,0.398
			s-0.504,0.633-0.504,1.104c0,0.377,0.158,0.695,0.479,0.957c0.32,0.26,0.863,0.498,1.631,0.715
			c0.77,0.217,1.369,0.455,1.803,0.715s0.756,0.564,0.965,0.91c0.211,0.348,0.314,0.756,0.314,1.227
			c0,0.748-0.291,1.348-0.875,1.799s-1.365,0.676-2.344,0.676c-0.635,0-1.227-0.121-1.777-0.365c-0.549-0.242-0.973-0.576-1.271-1
			c-0.299-0.422-0.447-0.902-0.447-1.439h1.225c0,0.559,0.207,1,0.619,1.322c0.412,0.324,0.963,0.486,1.652,0.486
			c0.645,0,1.137-0.131,1.48-0.395c0.342-0.262,0.514-0.619,0.514-1.072s-0.158-0.803-0.477-1.051
			C54.24,32.455,53.664,32.209,52.83,31.969z"/>
		<path fill="#36609F" d="M57.835,27.398c0-0.191,0.059-0.352,0.176-0.482c0.115-0.131,0.289-0.197,0.518-0.197
			s0.4,0.066,0.52,0.197s0.178,0.291,0.178,0.482c0,0.189-0.059,0.35-0.178,0.477s-0.291,0.189-0.52,0.189s-0.402-0.063-0.518-0.189
			C57.894,27.748,57.835,27.588,57.835,27.398z M59.105,36.088h-1.174v-6.867h1.174V36.088z"/>
		<path fill="#36609F" d="M60.9,32.598c0-1.07,0.248-1.922,0.744-2.555c0.494-0.633,1.15-0.949,1.967-0.949
			c0.838,0,1.492,0.295,1.961,0.889l0.059-0.762h1.072v6.703c0,0.889-0.264,1.588-0.791,2.1c-0.525,0.514-1.234,0.77-2.123,0.77
			c-0.494,0-0.979-0.105-1.453-0.318c-0.475-0.211-0.836-0.502-1.086-0.869l0.609-0.705c0.504,0.623,1.119,0.934,1.848,0.934
			c0.57,0,1.016-0.16,1.336-0.482s0.479-0.775,0.479-1.359v-0.59c-0.469,0.543-1.109,0.813-1.922,0.813
			c-0.805,0-1.455-0.324-1.953-0.971C61.15,34.596,60.9,33.715,60.9,32.598z M62.082,32.73c0,0.773,0.158,1.383,0.477,1.824
			c0.316,0.443,0.762,0.664,1.332,0.664c0.74,0,1.285-0.336,1.631-1.01v-3.135c-0.359-0.656-0.898-0.984-1.617-0.984
			c-0.572,0-1.018,0.223-1.34,0.666C62.242,31.201,62.082,31.859,62.082,32.73z"/>
		<path fill="#36609F" d="M69.779,29.221l0.039,0.863c0.523-0.66,1.209-0.99,2.057-0.99c1.451,0,2.184,0.818,2.195,2.455v4.539
			h-1.174v-4.545c-0.004-0.494-0.117-0.861-0.34-1.098s-0.568-0.355-1.037-0.355c-0.381,0-0.717,0.102-1.004,0.305
			s-0.512,0.469-0.672,0.799v4.895h-1.176v-6.867H69.779z"/>
		<path fill="#36609F" d="M79.457,27.398c0-0.191,0.057-0.352,0.174-0.482s0.289-0.197,0.518-0.197s0.402,0.066,0.52,0.197
			c0.119,0.131,0.178,0.291,0.178,0.482c0,0.189-0.059,0.35-0.178,0.477c-0.117,0.127-0.291,0.189-0.52,0.189
			s-0.4-0.063-0.518-0.189S79.457,27.588,79.457,27.398z M80.726,36.088H79.55v-6.867h1.176V36.088z"/>
		<path fill="#36609F" d="M83.91,29.221l0.039,0.863c0.523-0.66,1.209-0.99,2.057-0.99c1.451,0,2.184,0.818,2.195,2.455v4.539
			h-1.174v-4.545c-0.004-0.494-0.117-0.861-0.34-1.098s-0.568-0.355-1.037-0.355c-0.381,0-0.717,0.102-1.004,0.305
			s-0.512,0.469-0.672,0.799v4.895h-1.176v-6.867H83.91z"/>
		<path fill="#36609F" d="M99.662,34.469l1.324-5.248h1.174l-2.002,6.867h-0.952l-1.67-5.205l-1.625,5.205h-0.951l-1.994-6.867
			h1.168l1.352,5.141l1.6-5.141h0.947L99.662,34.469z"/>
		<path fill="#36609F" d="M103.554,27.398c0-0.191,0.059-0.352,0.176-0.482c0.115-0.131,0.287-0.197,0.516-0.197
			s0.402,0.066,0.521,0.197s0.178,0.291,0.178,0.482c0,0.189-0.059,0.35-0.178,0.477s-0.293,0.189-0.521,0.189
			s-0.4-0.063-0.516-0.189C103.612,27.748,103.554,27.588,103.554,27.398z M104.823,36.088h-1.174v-6.867h1.174V36.088z"/>
		<path fill="#36609F" d="M108.491,27.557v1.664h1.281v0.906h-1.281v4.266c0,0.275,0.057,0.482,0.172,0.619
			c0.113,0.139,0.309,0.207,0.584,0.207c0.135,0,0.32-0.025,0.559-0.076v0.947c-0.311,0.084-0.609,0.125-0.902,0.125
			c-0.525,0-0.92-0.158-1.188-0.477c-0.266-0.316-0.398-0.768-0.398-1.352v-4.26h-1.252v-0.906h1.252v-1.664H108.491z"/>
		<path fill="#36609F" d="M112.513,30.051c0.521-0.639,1.199-0.957,2.031-0.957c1.453,0,2.184,0.818,2.197,2.455v4.539h-1.174
			v-4.545c-0.006-0.494-0.117-0.861-0.34-1.098s-0.568-0.355-1.039-0.355c-0.381,0-0.715,0.102-1.002,0.305
			s-0.512,0.469-0.674,0.799v4.895h-1.174v-9.75h1.174V30.051z"/>
		<path fill="#36609F" d="M127.39,32.006h-3.879v4.082h-1.219v-9.242h5.725v0.996h-4.506v3.168h3.879V32.006z"/>
		<path fill="#36609F" d="M133.513,36.088c-0.068-0.135-0.123-0.377-0.166-0.723c-0.545,0.566-1.197,0.85-1.955,0.85
			c-0.676,0-1.232-0.191-1.666-0.574s-0.65-0.869-0.65-1.457c0-0.715,0.271-1.27,0.816-1.666c0.543-0.395,1.309-0.594,2.295-0.594
			h1.143v-0.539c0-0.41-0.123-0.738-0.369-0.98c-0.246-0.244-0.607-0.365-1.086-0.365c-0.418,0-0.77,0.105-1.053,0.316
			c-0.283,0.213-0.426,0.469-0.426,0.77h-1.18c0-0.344,0.121-0.674,0.365-0.994c0.242-0.318,0.572-0.572,0.99-0.758
			c0.416-0.188,0.873-0.279,1.373-0.279c0.791,0,1.412,0.197,1.859,0.594c0.449,0.395,0.682,0.939,0.699,1.633v3.162
			c0,0.631,0.08,1.133,0.24,1.504v0.102H133.513z M131.563,35.193c0.369,0,0.717-0.096,1.047-0.285
			c0.33-0.191,0.57-0.439,0.719-0.744v-1.408h-0.922c-1.438,0-2.158,0.422-2.158,1.264c0,0.367,0.123,0.656,0.369,0.863
			S131.179,35.193,131.563,35.193z"/>
		<path fill="#36609F" d="M139.294,35.256c0.418,0,0.785-0.127,1.098-0.381s0.486-0.57,0.52-0.951h1.111
			c-0.021,0.393-0.156,0.768-0.406,1.123s-0.582,0.639-1,0.852c-0.416,0.211-0.857,0.316-1.322,0.316
			c-0.936,0-1.68-0.313-2.232-0.936c-0.551-0.625-0.828-1.479-0.828-2.563v-0.195c0-0.67,0.123-1.264,0.369-1.785
			c0.244-0.52,0.598-0.924,1.057-1.211c0.459-0.289,1.002-0.432,1.627-0.432c0.771,0,1.41,0.23,1.922,0.691
			c0.51,0.461,0.781,1.061,0.814,1.797h-1.111c-0.033-0.445-0.201-0.811-0.504-1.096s-0.676-0.428-1.121-0.428
			c-0.596,0-1.059,0.215-1.387,0.645s-0.492,1.049-0.492,1.861v0.223c0,0.791,0.164,1.4,0.49,1.828
			C138.222,35.043,138.688,35.256,139.294,35.256z"/>
		<path fill="#36609F" d="M146.388,36.215c-0.93,0-1.688-0.305-2.271-0.916s-0.877-1.43-0.877-2.455v-0.215
			c0-0.682,0.131-1.289,0.391-1.824c0.262-0.535,0.625-0.955,1.092-1.258c0.469-0.303,0.975-0.453,1.521-0.453
			c0.893,0,1.586,0.293,2.082,0.881c0.494,0.59,0.742,1.432,0.742,2.527v0.488h-4.652c0.016,0.678,0.215,1.225,0.594,1.641
			c0.377,0.418,0.859,0.625,1.443,0.625c0.414,0,0.766-0.084,1.053-0.254c0.289-0.168,0.541-0.393,0.756-0.672l0.717,0.559
			C148.403,35.773,147.54,36.215,146.388,36.215z M146.243,30.059c-0.475,0-0.873,0.172-1.193,0.518
			c-0.322,0.344-0.521,0.828-0.598,1.449h3.441v-0.088c-0.035-0.598-0.195-1.059-0.482-1.387
			C147.122,30.223,146.733,30.059,146.243,30.059z"/>
		<path fill="#36609F" d="M156.435,32.73c0,1.049-0.24,1.893-0.723,2.529s-1.131,0.955-1.943,0.955c-0.867,0-1.537-0.307-2.012-0.92
			l-0.057,0.793h-1.08v-9.75h1.174v3.637c0.475-0.588,1.129-0.881,1.963-0.881c0.832,0,1.488,0.314,1.965,0.945
			c0.475,0.631,0.713,1.494,0.713,2.59V32.73z M155.261,32.598c0-0.801-0.154-1.418-0.463-1.854
			c-0.311-0.436-0.754-0.654-1.334-0.654c-0.773,0-1.33,0.359-1.67,1.078v2.971c0.361,0.721,0.922,1.08,1.684,1.08
			c0.563,0,1-0.219,1.313-0.654C155.104,34.129,155.261,33.473,155.261,32.598z"/>
		<path fill="#36609F" d="M157.798,32.59c0-0.672,0.133-1.277,0.396-1.814s0.633-0.953,1.105-1.244
			c0.471-0.293,1.01-0.438,1.615-0.438c0.934,0,1.691,0.322,2.27,0.971c0.576,0.646,0.865,1.508,0.865,2.584v0.082
			c0,0.668-0.127,1.268-0.383,1.799c-0.258,0.531-0.623,0.945-1.1,1.242c-0.475,0.295-1.023,0.443-1.641,0.443
			c-0.932,0-1.686-0.324-2.262-0.971c-0.578-0.648-0.867-1.504-0.867-2.57V32.59z M158.978,32.73c0,0.762,0.178,1.373,0.531,1.834
			s0.826,0.691,1.418,0.691c0.598,0,1.07-0.232,1.422-0.701c0.352-0.467,0.527-1.121,0.527-1.965c0-0.752-0.18-1.363-0.537-1.83
			c-0.357-0.469-0.832-0.701-1.424-0.701c-0.58,0-1.049,0.23-1.404,0.691S158.978,31.871,158.978,32.73z"/>
		<path fill="#36609F" d="M165.407,32.59c0-0.672,0.133-1.277,0.396-1.814s0.633-0.953,1.105-1.244
			c0.471-0.293,1.01-0.438,1.615-0.438c0.934,0,1.691,0.322,2.27,0.971c0.576,0.646,0.865,1.508,0.865,2.584v0.082
			c0,0.668-0.127,1.268-0.383,1.799c-0.258,0.531-0.623,0.945-1.1,1.242c-0.475,0.295-1.023,0.443-1.641,0.443
			c-0.932,0-1.686-0.324-2.262-0.971c-0.578-0.648-0.867-1.504-0.867-2.57V32.59z M166.587,32.73c0,0.762,0.178,1.373,0.531,1.834
			s0.826,0.691,1.418,0.691c0.598,0,1.07-0.232,1.422-0.701c0.352-0.467,0.527-1.121,0.527-1.965c0-0.752-0.18-1.363-0.537-1.83
			c-0.357-0.469-0.832-0.701-1.424-0.701c-0.58,0-1.049,0.23-1.404,0.691S166.587,31.871,166.587,32.73z"/>
		<path fill="#36609F" d="M175.243,32.908l-0.736,0.768v2.412h-1.174v-9.75h1.174v5.896l0.629-0.754l2.139-2.26h1.43l-2.674,2.869
			l2.984,3.998h-1.377L175.243,32.908z"/>
	</g>
	<path fill="#36609F" d="M34.617,31.114h-2.242c0,3.584,0,7.994,0,7.994h-3.322c0,0,0-4.367,0-7.994h-1.58V28.29h1.58v-1.828
		c0-1.307,0.621-3.354,3.354-3.354l2.461,0.01v2.742c0,0-1.496,0-1.787,0s-0.705,0.146-0.705,0.77v1.66h2.533L34.617,31.114z"/>
</g>
</svg>
